<?xml version="1.0" encoding="utf-8"?>
<!-- Generator: Adobe Illustrator 22.1.0, SVG Export Plug-In . SVG Version: 6.00 Build 0)  -->
<svg version="1.1" id="Calque_1" xmlns="http://www.w3.org/2000/svg" xmlns:xlink="http://www.w3.org/1999/xlink" x="0px" y="0px"
	 viewBox="0 0 200 200" style="enable-background:new 0 0 200 200;" xml:space="preserve">
<style type="text/css">
	.st0{clip-path:url(#SVGID_2_);}
	.st1{fill:#FFFFFF;}
	.st2{opacity:0.6;fill:#CFE0F3;}
	.st3{opacity:0.5;fill:#FFFFFF;}
	.st4{fill:#6D6E71;}
	.st5{opacity:0.5;fill:#6D6E71;}
	.st6{fill:#96C0E6;}
	.st7{opacity:0.6;fill:#E1E8F6;}
	.st8{fill:#ED1849;}
	.st9{opacity:0.5;fill:#AB0634;}
	.st10{fill:#D11242;}
	.st11{opacity:0.4;fill:#820024;}
	.st12{fill:#FBD9B5;}
	.st13{opacity:0.3;fill:#FBD9B5;}
	.st14{fill:#663700;}
	.st15{fill:#CFE1F4;}
	.st16{fill:#E9F1FA;}
	.st17{opacity:0.3;fill:#F4C092;}
	.st18{fill:#231F20;}
	.st19{fill:#820024;}
	.st20{opacity:0.5;fill:#FBD9B5;}
	.st21{fill:#572700;}
	.st22{opacity:0.3;fill:#572700;}
</style>
<g>
	<defs>
		<rect id="SVGID_1_" width="200.5" height="200.5"/>
	</defs>
	<clipPath id="SVGID_2_">
		<use xlink:href="#SVGID_1_"  style="overflow:visible;"/>
	</clipPath>
	<g class="st0">
		<g>
			<g>
				<path class="st1" d="M139.7,165.9c0,0-34.5-13.2-48.2-13.2c-13.6,0-50.8,13.2-50.8,13.2s-17.9,93.1-12.6,106.2
					c10.2,25.1,62.1,21.4,62.1,21.4s51.9,3.8,62.1-21.4C157.6,259.1,139.7,165.9,139.7,165.9z"/>
				<path class="st2" d="M90.2,293.5c0,0,51.9,3.8,62.1-21.4c5.3-13.1-12.6-106.2-12.6-106.2s-34.5-13.2-48.2-13.2
					c-13.6,0-34.6,7.7-34.6,7.7s30.1,23.1,75,6.9c0,0,24.1,63.4,3.6,97.6C115.1,299,57,293.5,31.8,278.2l0,0
					C47.2,296.6,90.2,293.5,90.2,293.5z"/>
			</g>
			<path class="st3" d="M42.2,189.2c0,0-12.8,76,0.6,88.9c0,0-13.4-4.5-11.5-26.2C33.3,230.1,42.2,189.2,42.2,189.2z"/>
		</g>
		<g>
			<g>
				<path class="st4" d="M99.2,196.7c-0.2,3-2.7,5.3-5.7,5.1c-3-0.2-5.3-2.7-5.1-5.7c0.2-3,2.7-5.3,5.7-5.1
					C97.1,191.1,99.4,193.7,99.2,196.7z"/>
				<path class="st5" d="M96.4,191.6c0.9,1,1.4,2.4,1.3,3.8c-0.2,3-2.7,5.3-5.7,5.1c-0.8,0-1.6-0.3-2.3-0.7c0.9,1.1,2.3,1.8,3.8,1.9
					c3,0.2,5.6-2.1,5.7-5.1C99.4,194.5,98.2,192.6,96.4,191.6z"/>
			</g>
			<g>
				<path class="st4" d="M98.1,219c-0.2,3-2.7,5.3-5.7,5.1c-3-0.2-5.3-2.7-5.1-5.7c0.2-3,2.7-5.3,5.7-5.1
					C96,213.5,98.3,216.1,98.1,219z"/>
				<path class="st5" d="M95.3,214c0.9,1,1.4,2.4,1.3,3.8c-0.2,3-2.7,5.3-5.7,5.1c-0.8,0-1.6-0.3-2.3-0.7c0.9,1.1,2.3,1.8,3.8,1.9
					c3,0.2,5.6-2.1,5.7-5.1C98.2,216.9,97.1,215,95.3,214z"/>
			</g>
			<g>
				<path class="st4" d="M97.4,243c-0.2,3-2.7,5.3-5.7,5.1c-3-0.2-5.3-2.7-5.1-5.7c0.2-3,2.7-5.3,5.7-5.1
					C95.3,237.5,97.5,240,97.4,243z"/>
				<path class="st5" d="M94.6,238c0.9,1,1.4,2.4,1.3,3.8c-0.2,3-2.7,5.3-5.7,5.1c-0.8,0-1.6-0.3-2.3-0.7c0.9,1.1,2.3,1.8,3.8,1.9
					c3,0.2,5.6-2.1,5.7-5.1C97.5,240.9,96.3,238.9,94.6,238z"/>
			</g>
		</g>
		<g>
			<g>
				<path class="st1" d="M94.9,159.4c0,0,20.9-1.3,28.7-5.9l2.4,7.4c0,0-10.2,9.1-31.1,11.5V159.4z"/>
				<path class="st1" d="M94.9,159.4c0,0-20.2-1.7-28.7-5.9l-2.4,7.4c0,0,10.2,9.1,31.1,11.5V159.4z"/>
			</g>
			<path class="st6" d="M100.6,164.8c0,0.8-0.7,1.5-1.5,1.5c-0.8,0-1.5-0.7-1.5-1.5c0-0.8,0.7-1.5,1.5-1.5
				C99.9,163.3,100.6,164,100.6,164.8z"/>
			<path class="st6" d="M92.4,164.3c0,0.8-0.7,1.5-1.5,1.5c-0.8,0-1.5-0.7-1.5-1.5c0-0.8,0.7-1.5,1.5-1.5
				C91.7,162.8,92.4,163.5,92.4,164.3z"/>
			<path class="st7" d="M94.9,159.4c0,0-0.8-0.1-2-0.2c0,0,2,3.6-2.4,7.4c-4.4,3.8-15.2-1.9-18.7-3.2c-3.5-1.3-5.9-3.8-5.2-5.5
				c0.6-1.6,2.5-2.9,2.8-3.1c-1.2-0.4-2.3-0.8-3.2-1.3l-2.4,7.4c0,0,10.2,9.1,31.1,11.5V159.4z"/>
		</g>
		<g>
			<path class="st8" d="M66.2,153.5c0,0,31.7,11.1,57.4,0l0.9,2.7c0,0-25.9,19.8-59-0.4L66.2,153.5z"/>
			<g>
				<g>
					<g>
						<path class="st8" d="M94.4,168c0,0,8.7,17.5,10.9,28.6c0,0,9-3.3,13.7-3c0,0-6.1-22.8-20.4-28.1L94.4,168z"/>
						<path class="st9" d="M105.3,196.6c0,0,9-3.3,13.7-3c0,0-6.1-22.8-20.4-28.1l-4.2,2.5c0,0,2.3,4.5,4.8,10.5h0
							c0,0-1.9-6.9-0.6-7.1c1.3-0.2,5.3,8,5.3,8s-2.3-7.5-3.4-8.9c0,0,0.8-1.4,3-0.3c2.3,1.1,10.1,15.6,11.2,19.1
							C115.9,192.9,106.6,195.5,105.3,196.6z"/>
					</g>
					<g>
						<path class="st8" d="M93.9,168c0,0-8.7,17.5-10.9,28.6c0,0-9-3.3-13.7-3c0,0,6.1-22.8,20.4-28.1L93.9,168z"/>
						<path class="st9" d="M83,196.6c0,0-9-3.3-13.7-3c0,0,6.1-22.8,20.4-28.1l4.2,2.5c0,0-2.3,4.5-4.8,10.5h0c0,0,1.9-6.9,0.6-7.1
							c-1.3-0.2-5.3,8-5.3,8s2.3-7.5,3.4-8.9c0,0-0.8-1.4-3-0.3c-2.3,1.1-10.1,15.6-11.2,19.1C72.5,192.9,81.8,195.5,83,196.6z"/>
					</g>
				</g>
				<g>
					<path class="st10" d="M102.2,164.5c0,3.6-3.8,6.6-8.4,6.6c-4.7,0-8.5-3-8.5-6.6c0-3.6,3.8-6.6,8.5-6.6
						C98.5,157.9,102.2,160.8,102.2,164.5z"/>
					<path class="st11" d="M98.1,158.8c0.7,0.9,1.1,1.9,1.1,3c0,3.1-3.2,5.6-7.2,5.6c-2.9,0-5.4-1.4-6.6-3.3c0,0.1,0,0.2,0,0.3
						c0,3.6,3.8,6.6,8.5,6.6c4.7,0,8.4-3,8.4-6.6C102.2,162.1,100.6,159.9,98.1,158.8z"/>
				</g>
			</g>
		</g>
		<g>
			<g>
				<path class="st12" d="M142.2,109.3c-0.4,27.2-10.2,49.1-48.1,50.6C56.2,161.4,40.8,138,40,107.8c-0.9-31,23.9-54.9,53.6-52.8
					C121.5,57,142.6,81.5,142.2,109.3z"/>
				<path class="st13" d="M67.1,155.4c7.3,3.2,16.2,4.7,26.8,4.3c37.9-1.5,47.7-23.4,48.1-50.6c0.3-18.8-15-38.7-29.7-48.6
					c-3.4,2.4-7.5,39.9,16.9,48.8c0,0,13,3.5,2.5,26.4C114.7,166.2,82.5,159.3,67.1,155.4z"/>
			</g>
			<path class="st14" d="M103.5,61.9c-10.2-2.4-40.6,1.2-40.6,1.2s-0.5,0.2-1.4,0.5C54,68.8,48.4,76,44.6,84.6
				c4.4-7,20.7-21.5,41-18.5c21.1,3.2,28.3,9.7,28.6,18c0.3,8.3,5.7,23.3,15.2,25.2c0,0,7.1-6.6,12.7-3.6
				c-0.5-9.5-3.4-18.5-8.3-26.3C125.1,72.3,110.7,63.6,103.5,61.9z"/>
			<g>
				<path class="st1" d="M149.9,22.7c-1.4-16.1-14.4-26.6-28.7-23.2c-3.9,0.9-7.6,2.8-10.7,5.4c-5.2-11.6-16.7-18.1-28.8-15.2
					c-10.7,2.6-18.9,11.9-22,23.2c-4.5-2.4-9.7-3.2-14.9-1.9c-13.4,3.2-22,18.2-19.5,33.3c2.5,14.8,14.8,24.5,27.8,21.7
					c2.8-0.6,5.4-1.7,7.8-3.3c40-23.5,60.2,13.3,64.1,7.9c5.2,9,15,13.9,25.7,11.8c14.8-2.9,25.9-18.4,24.7-34.7
					C174.3,32.6,163.3,22.2,149.9,22.7z"/>
				<path class="st2" d="M149.9,22.7c-1.4-16.1-14.4-26.6-28.7-23.2c-3.8,0.9-7.3,2.7-10.4,5.1c-1.1,2.6-1.8,5.3-2.1,8
					c0,0,34.5-11.6,39.1,21.1c0,0,20.9-3.3,17.4,23c-2.2,16.2-20.4,15-20.4,15s-27.8-54-99-13.7c0,0-18.3-2.5-10.8-32.5
					c0.1-1.5-10.7,4.1-9.9,18.1c0,0.2,0.1,0.4,0.1,0.6c2.5,14.8,14.8,24.5,27.8,21.7c2.8-0.6,5.4-1.7,7.8-3.3
					c40-23.5,60.2,13.3,64.1,7.9c5.2,9,15,13.9,25.7,11.8c14.8-2.9,25.9-18.4,24.7-34.7C174.3,32.6,163.3,22.2,149.9,22.7z"/>
				<path class="st15" d="M149.9,22.7c-1.4-16.1-14.4-26.6-28.7-23.2c-3.9,0.9-7.6,2.8-10.7,5.4c-5.2-11.6-16.7-18.1-28.8-15.2
					c-10.7,2.6-18.9,11.9-22,23.2c-4.5-2.4-9.7-3.2-14.9-1.9c-13.4,3.2-22,18.2-19.5,33.3c2.1,12.6,11.2,21.4,21.8,22.1
					c-7.8-3.1-18.1-10.8-17.1-23.3c2.4-22.2,12.7-30,32-26.5c0,0,3.8-23,25.1-22.1c21.5,0.8,21.7,18.2,21.7,18.2s14.7-11.8,26.7-4.5
					c11.9,7.4,12.9,18.5,12.8,25.6c0,0,1.8-4.5,1.8-7.8c0,0,29.4,2.4,17.3,34C159.7,80,139.6,76,139.6,76l-0.3,5.9
					c3.6,1,7.4,1.2,11.5,0.4c14.8-2.9,25.9-18.4,24.7-34.7C174.3,32.6,163.3,22.2,149.9,22.7z"/>
				<path class="st1" d="M48.1,75.6c0,0,57.3-22.6,92,17.3l2.9-19.6c0,0-24.2-45.2-95.8-13.2L48.1,75.6z"/>
				<path class="st15" d="M125.5,57c0.3,0.2,0.6,0.4,0.9,0.6c11.5,6.8,14,16,11.7,20.7c-1.5,3.2-6,1.5-27.1-7.9
					c-21.2-9.4-47.3-2.4-54.7,0.4c-8.3,3.2-8.4-3.3-8.7-4.3l0.5,9.2c0,0,57.3-22.6,92,17.3l2.9-19.6C143,73.4,138.1,64.1,125.5,57z"
					/>
				<path class="st16" d="M50.3,64.3c0,0-1-3,1-3.7c2-0.7,23-9.1,38.9-8.7C90.2,51.9,60.9,57.1,50.3,64.3z"/>
			</g>
			<g>
				<g>
					<path class="st12" d="M148.9,121.8c-4.7,6.7-12.3,9-17,5.2c-4.8-3.8-3.2-16.3,1.5-23c4.7-6.7,10.6-5.1,15.4-1.3
						C153.5,106.6,153.6,115.1,148.9,121.8z"/>
					<path class="st17" d="M149.2,107.6c0,0-2.9-1.3-4.6,1.4c-1.7,2.7-5.3,12.9-3.7,13.5c1.6,0.6,4.2,0,5.2-3c0.9-3,0.5-5.6-0.8-5.2
						C143.9,114.7,146,107.4,149.2,107.6z"/>
				</g>
			</g>
			<g>
				<path class="st18" d="M98.9,100.3c0.5,3.1-1.2,6-3.9,6.4c-2.7,0.5-5.3-1.7-5.8-4.7c-0.5-3.1,1.2-6,3.9-6.4
					C95.7,95.1,98.3,97.3,98.9,100.3z"/>
				<path class="st1" d="M95.3,98.3c0.1,0.7-0.3,1.3-1,1.4c-0.7,0.1-1.3-0.3-1.4-1c-0.1-0.7,0.3-1.3,1-1.4
					C94.6,97.2,95.2,97.6,95.3,98.3z"/>
				<path class="st1" d="M97.8,100.2c0.1,0.4-0.2,0.8-0.6,0.9c-0.4,0.1-0.8-0.2-0.9-0.6c-0.1-0.4,0.2-0.8,0.6-0.9
					C97.4,99.5,97.8,99.8,97.8,100.2z"/>
			</g>
			<g>
				<path class="st18" d="M69.7,101.3c0.5,3.1-1.2,6-3.9,6.4c-2.7,0.5-5.3-1.7-5.9-4.7c-0.5-3.1,1.2-6,3.9-6.4
					C66.6,96.1,69.2,98.3,69.7,101.3z"/>
				<path class="st1" d="M66.2,99.3c0.1,0.7-0.3,1.3-1,1.4c-0.7,0.1-1.3-0.3-1.4-1c-0.1-0.7,0.3-1.3,1-1.4
					C65.4,98.2,66.1,98.6,66.2,99.3z"/>
				<path class="st1" d="M68.7,101.2c0.1,0.4-0.2,0.8-0.6,0.9c-0.4,0.1-0.8-0.2-0.9-0.6c-0.1-0.4,0.2-0.8,0.6-0.9
					C68.2,100.5,68.6,100.8,68.7,101.2z"/>
			</g>
			<path class="st14" d="M101.5,82.9c-0.7-0.9-3-1.5-6.1-2c-5.5-0.9-7.6,1.3-5.7,3.5c1.9,2.2,4.4,2,7.4,3.8c3.1,1.7,7.6,4.5,7.7,0.7
				C104.9,85.1,101.5,82.9,101.5,82.9z"/>
			<path class="st14" d="M55.4,84.7c0.6-0.9,3-1.6,6.1-2.2c5.5-1,7.6,1.1,5.8,3.3c-1.8,2.3-4.3,2.2-7.3,4c-3,1.8-7.4,4.7-7.7,0.9
				C52,87,55.4,84.7,55.4,84.7z"/>
			<g>
				<g>
					<path class="st19" d="M67.4,135.2c0.9-0.4,12.9,6,22.5-5c0,0,1.5,11.8-8.6,13.3C71.3,145,67.4,135.2,67.4,135.2z"/>
					<path class="st10" d="M73.6,142.3L73.6,142.3c2,1.1,4.5,1.8,7.7,1.3c3.6-0.5,5.8-2.4,7-4.6v0C78.5,134.9,73.6,142.3,73.6,142.3
						z"/>
				</g>
				<path class="st20" d="M77.9,146.8c0,0-0.8-1.1,3.6-0.9c3.4,0.2,5.9-3.3,5.5-2.1C86.5,145,86.3,150.4,77.9,146.8z"/>
			</g>
			<g>
				<g>
					<g>
						<path class="st21" d="M77,118.9c0,0,0.9-9.6,14.9-9.7c14-0.1,19.4,9.4,24.2,14.7c4.7,5.3,16.4,6.8,19.2-2
							c0,0-3.9,20.7-29.1,17C80.6,135.1,77.1,132.6,77,118.9z"/>
						<path class="st22" d="M116,123.9c-4.7-5.3-10.2-14.8-24.2-14.7c-3.6,0-6.4,0.7-8.4,1.7c0,0,18.5-2.4,26.3,9
							c7.8,11.4,10.1,14.5,3.1,15.2c-7,0.7-23.2,1.5-29.4-1.7c0,0,0,0,0,0c4.3,2.3,11.3,3.7,22.7,5.4c25.2,3.7,29.1-17,29.1-17
							C132.5,130.8,120.8,129.2,116,123.9z"/>
					</g>
					<g>
						<path class="st21" d="M79.8,121.7c0,0,0.7-8.7-11.8-10.9c-12.4-2.2-18.7,5.4-23.8,9.4c-5,4-15.7,3.6-16.8-4.7
							c0,0,0.4,19,23.4,19.6C74.2,135.6,77.6,133.9,79.8,121.7z"/>
						<path class="st22" d="M44.2,120.2c5-4,11.3-11.6,23.8-9.4c3.2,0.6,5.6,1.6,7.3,2.8c0,0-16.1-4.9-24.8,4
							c-8.7,9-11.2,11.4-5.1,13.1c6.1,1.7,20.4,4.9,26.5,3c0,0,0,0,0,0c-4.2,1.4-10.6,1.6-21,1.3c-23-0.5-23.4-19.6-23.4-19.6
							C28.5,123.8,39.2,124.2,44.2,120.2z"/>
					</g>
				</g>
				<g>
					<path class="st12" d="M89.7,110.9c0,3-4.5,5.5-10.2,5.6c-5.7,0.1-10.3-2.3-10.3-5.3c-0.1-3,4.5-5.5,10.2-5.6
						C85,105.5,89.6,107.9,89.7,110.9z"/>
					<path class="st20" d="M80.4,113.9c-5.3,0.1-8.8-0.7-8.9-3.5c0-1.2-0.1-2.5,1.2-3.3c-2.2,1-3.6,2.6-3.5,4.2
						c0,3,4.7,5.4,10.3,5.3c5.7-0.1,10.2-2.6,10.2-5.6c0-0.1,0-0.2,0-0.3C89,113.1,85.2,113.8,80.4,113.9z"/>
				</g>
			</g>
		</g>
	</g>
</g>
</svg>
