<?xml version="1.0" encoding="utf-8"?>
<!-- Generator: Adobe Illustrator 22.1.0, SVG Export Plug-In . SVG Version: 6.00 Build 0)  -->
<svg version="1.1" id="Calque_1" xmlns="http://www.w3.org/2000/svg" xmlns:xlink="http://www.w3.org/1999/xlink" x="0px" y="0px"
	 viewBox="0 0 200 200" style="enable-background:new 0 0 200 200;" xml:space="preserve">
<style type="text/css">
	.st0{clip-path:url(#SVGID_2_);}
	.st1{fill:#FFFFFF;}
	.st2{opacity:0.6;fill:#CFE0F3;}
	.st3{opacity:0.5;fill:#FFFFFF;}
	.st4{fill:#6D6E71;}
	.st5{opacity:0.5;fill:#6D6E71;}
	.st6{fill:#96C0E6;}
	.st7{opacity:0.6;fill:#E1E8F6;}
	.st8{fill:#ED1849;}
	.st9{opacity:0.5;fill:#AB0634;}
	.st10{fill:#D11242;}
	.st11{opacity:0.4;fill:#820024;}
	.st12{fill:#FBD9B5;}
	.st13{opacity:0.3;fill:#FBD9B5;}
	.st14{fill:#663700;}
	.st15{fill:#CFE1F4;}
	.st16{fill:#E9F1FA;}
	.st17{opacity:0.3;fill:#F4C092;}
	.st18{fill:#231F20;}
	.st19{fill:#820024;}
	.st20{opacity:0.5;fill:#FBD9B5;}
	.st21{fill:#572700;}
	.st22{opacity:0.3;fill:#572700;}
</style>
<g>
	<defs>
		<rect id="SVGID_1_" x="0" width="200" height="200"/>
	</defs>
	<clipPath id="SVGID_2_">
		<use xlink:href="#SVGID_1_"  style="overflow:visible;"/>
	</clipPath>
	<g class="st0">
		<g>
			<g>
				<path class="st1" d="M60.6,165.6c0,0,34.4-13.2,48.1-13.2c13.6,0,50.7,13.2,50.7,13.2s17.8,92.9,12.5,106
					c-10.1,25.1-61.9,21.3-61.9,21.3s-51.8,3.8-61.9-21.3C42.8,258.4,60.6,165.6,60.6,165.6z"/>
				<path class="st2" d="M110,292.8c0,0-51.8,3.8-61.9-21.3c-5.3-13.1,12.5-106,12.5-106s34.4-13.2,48.1-13.2
					c13.6,0,34.5,7.7,34.5,7.7s-30,23.1-74.8,6.9c0,0-24,63.3-3.6,97.3c20.4,34,78.4,28.5,103.5,13.3l0,0
					C152.9,295.9,110,292.8,110,292.8z"/>
			</g>
			<path class="st3" d="M157.9,188.7c0,0,12.8,75.9-0.6,88.7c0,0,13.4-4.5,11.5-26.2C166.8,229.6,157.9,188.7,157.9,188.7z"/>
		</g>
		<g>
			<g>
				<path class="st4" d="M101,196.2c0.2,3,2.7,5.3,5.7,5.1c3-0.2,5.3-2.7,5.1-5.7c-0.2-3-2.7-5.3-5.7-5.1
					C103.1,190.7,100.8,193.2,101,196.2z"/>
				<path class="st5" d="M103.8,191.2c-0.9,1-1.4,2.4-1.3,3.8c0.2,3,2.7,5.3,5.7,5.1c0.8-0.1,1.6-0.3,2.3-0.7
					c-0.9,1.1-2.3,1.8-3.8,1.9c-3,0.2-5.5-2.1-5.7-5.1C100.9,194.1,102,192.1,103.8,191.2z"/>
			</g>
			<g>
				<path class="st4" d="M102.1,218.5c0.2,3,2.7,5.3,5.7,5.1c3-0.2,5.3-2.7,5.1-5.7c-0.2-3-2.7-5.3-5.7-5.1
					C104.2,213,102,215.5,102.1,218.5z"/>
				<path class="st5" d="M104.9,213.5c-0.9,1-1.4,2.4-1.3,3.8c0.2,3,2.7,5.3,5.7,5.1c0.8-0.1,1.6-0.3,2.3-0.7
					c-0.9,1.1-2.3,1.8-3.8,1.9c-3,0.2-5.5-2.1-5.7-5.1C102,216.4,103.2,214.4,104.9,213.5z"/>
			</g>
			<g>
				<path class="st4" d="M102.9,242.5c0.2,3,2.7,5.3,5.7,5.1c3-0.2,5.3-2.7,5.1-5.7c-0.2-3-2.7-5.3-5.7-5.1
					C105,236.9,102.7,239.5,102.9,242.5z"/>
				<path class="st5" d="M105.7,237.4c-0.9,1-1.4,2.4-1.3,3.8c0.2,3,2.7,5.3,5.7,5.1c0.8,0,1.6-0.3,2.3-0.7
					c-0.9,1.1-2.3,1.8-3.8,1.9c-3,0.2-5.5-2.1-5.7-5.1C102.7,240.3,103.9,238.4,105.7,237.4z"/>
			</g>
		</g>
		<g>
			<g>
				<path class="st1" d="M105.3,159.1c0,0-20.9-1.3-28.6-5.9l-2.4,7.3c0,0,10.1,9.1,31,11.5V159.1z"/>
				<path class="st1" d="M105.3,159.1c0,0,20.1-1.7,28.6-5.9l2.4,7.3c0,0-10.1,9.1-31,11.5V159.1z"/>
			</g>
			<path class="st6" d="M99.6,164.4c0,0.8,0.7,1.5,1.5,1.5c0.8,0,1.5-0.7,1.5-1.5c0-0.8-0.7-1.5-1.5-1.5
				C100.3,162.9,99.6,163.6,99.6,164.4z"/>
			<path class="st6" d="M107.8,164c0,0.8,0.7,1.5,1.5,1.5c0.8,0,1.5-0.7,1.5-1.5c0-0.8-0.7-1.5-1.5-1.5
				C108.5,162.5,107.8,163.1,107.8,164z"/>
			<path class="st7" d="M105.3,159.1c0,0,0.8-0.1,2-0.2c0,0-2,3.6,2.3,7.4c4.4,3.8,15.1-1.9,18.6-3.2c3.5-1.3,5.8-3.8,5.2-5.5
				c-0.6-1.6-2.5-2.9-2.8-3.1c1.2-0.4,2.3-0.8,3.2-1.3l2.4,7.3c0,0-10.1,9.1-31,11.5V159.1z"/>
		</g>
		<g>
			<path class="st8" d="M134,153.1c0,0-31.6,11.1-57.2,0l-0.9,2.7c0,0,25.8,19.7,58.9-0.4L134,153.1z"/>
			<g>
				<g>
					<g>
						<path class="st8" d="M105.8,167.6c0,0-8.7,17.4-10.9,28.5c0,0-9-3.3-13.7-2.9c0,0,6.1-22.8,20.4-28.1L105.8,167.6z"/>
						<path class="st9" d="M94.9,196.1c0,0-9-3.3-13.7-2.9c0,0,6.1-22.8,20.4-28.1l4.2,2.5c0,0-2.3,4.5-4.8,10.5l0,0
							c0,0,1.9-6.8,0.6-7.1c-1.3-0.2-5.3,8-5.3,8s2.3-7.5,3.4-8.9c0,0-0.8-1.4-3-0.3c-2.3,1.1-10.1,15.6-11.2,19.1
							C84.4,192.4,93.7,195,94.9,196.1z"/>
					</g>
					<g>
						<path class="st8" d="M106.3,167.6c0,0,8.7,17.4,10.9,28.5c0,0,9-3.3,13.7-2.9c0,0-6.1-22.8-20.4-28.1L106.3,167.6z"/>
						<path class="st9" d="M117.2,196.1c0,0,9-3.3,13.7-2.9c0,0-6.1-22.8-20.4-28.1l-4.2,2.5c0,0,2.3,4.5,4.8,10.5l0,0
							c0,0-1.9-6.8-0.6-7.1c1.3-0.2,5.3,8,5.3,8s-2.3-7.5-3.4-8.9c0,0,0.8-1.4,3-0.3c2.3,1.1,10.1,15.6,11.2,19.1
							C127.7,192.4,118.4,195,117.2,196.1z"/>
					</g>
				</g>
				<g>
					<path class="st10" d="M98,164.1c0,3.6,3.8,6.6,8.4,6.6c4.7,0,8.4-2.9,8.4-6.6c0-3.6-3.8-6.6-8.4-6.6
						C101.8,157.5,98,160.5,98,164.1z"/>
					<path class="st11" d="M102.2,158.4c-0.7,0.9-1.1,1.9-1.1,3c0,3.1,3.2,5.6,7.2,5.6c2.9,0,5.4-1.4,6.6-3.3c0,0.1,0,0.2,0,0.3
						c0,3.6-3.8,6.6-8.4,6.6c-4.7,0-8.4-2.9-8.4-6.6C98,161.7,99.7,159.6,102.2,158.4z"/>
				</g>
			</g>
		</g>
		<g>
			<g>
				<path class="st12" d="M58.1,109c0.4,27.1,10.2,49,48,50.5c37.8,1.5,53.2-21.8,54-51.9c0.8-30.9-23.8-54.7-53.5-52.7
					C78.8,56.9,57.7,81.3,58.1,109z"/>
				<path class="st13" d="M133,155c-7.3,3.1-16.2,4.7-26.8,4.3c-37.8-1.5-47.6-23.4-48-50.5c-0.3-18.7,15-38.6,29.6-48.4
					c3.4,2.4,7.5,39.8-16.9,48.7c0,0-12.9,3.5-2.4,26.4C85.6,165.8,117.7,159,133,155z"/>
			</g>
			<path class="st14" d="M96.8,61.8c10.2-2.4,40.5,1.2,40.5,1.2s0.5,0.2,1.3,0.5c7.4,5.2,13.1,12.4,16.8,20.9
				c-4.4-6.9-20.6-21.5-40.9-18.5c-21.1,3.1-28.2,9.7-28.5,18c-0.3,8.2-5.7,23.3-15.1,25.2c0,0-7.1-6.6-12.7-3.6
				c0.5-9.5,3.4-18.5,8.3-26.2C75.2,72.2,89.6,63.5,96.8,61.8z"/>
			<g>
				<path class="st1" d="M50.4,22.6C51.8,6.6,64.7-3.9,79-0.5c3.9,0.9,7.5,2.8,10.7,5.4c5.2-11.6,16.6-18.1,28.7-15.1
					c10.7,2.6,18.9,11.9,21.9,23.1c4.5-2.4,9.6-3.2,14.9-1.9c13.3,3.2,21.9,18.1,19.4,33.2c-2.5,14.8-14.8,24.4-27.7,21.6
					c-2.8-0.6-5.4-1.7-7.8-3.3c-39.9-23.5-60,13.3-63.9,7.9c-5.2,9-15,13.9-25.6,11.8C34.9,79.2,23.8,63.8,25,47.5
					C26.1,32.5,37.1,22.1,50.4,22.6z"/>
				<path class="st2" d="M50.4,22.6C51.8,6.6,64.7-3.9,79-0.5c3.8,0.9,7.3,2.7,10.3,5.1c1.1,2.6,1.8,5.3,2.1,7.9
					c0,0-34.4-11.6-39,21.1c0,0-20.9-3.3-17.3,22.9c2.2,16.1,20.4,15,20.4,15s27.7-53.9,98.7-13.6c0,0,18.2-2.5,10.8-32.4
					c-0.1-1.5,10.6,4,9.9,18c0,0.2-0.1,0.4-0.1,0.6c-2.5,14.8-14.8,24.4-27.7,21.6c-2.8-0.6-5.4-1.7-7.8-3.3
					c-39.9-23.5-60,13.3-63.9,7.9c-5.2,9-15,13.9-25.6,11.8C34.9,79.2,23.8,63.8,25,47.5C26.1,32.5,37.1,22.1,50.4,22.6z"/>
				<path class="st15" d="M50.4,22.6C51.8,6.6,64.7-3.9,79-0.5c3.9,0.9,7.5,2.8,10.7,5.4c5.2-11.6,16.6-18.1,28.7-15.1
					c10.7,2.6,18.9,11.9,21.9,23.1c4.5-2.4,9.6-3.2,14.9-1.9c13.3,3.2,21.9,18.1,19.4,33.2c-2.1,12.5-11.2,21.3-21.7,22.1
					c7.8-3.1,18-10.8,17.1-23.2c-2.4-22.1-12.7-29.9-31.9-26.5c0,0-3.8-22.9-25-22.1C91.7-4.8,91.5,12.6,91.5,12.6
					S76.8,0.8,64.9,8.1C53,15.4,52,26.5,52.1,33.6c0,0-1.8-4.5-1.8-7.8c0,0-29.3,2.4-17.3,33.9c7.6,20,27.7,16,27.7,16l0.3,5.9
					c-3.6,1-7.4,1.2-11.4,0.4C34.9,79.2,23.8,63.8,25,47.5C26.1,32.5,37.1,22.1,50.4,22.6z"/>
				<path class="st1" d="M152,75.5c0,0-57.2-22.6-91.8,17.3l-2.9-19.5c0,0,24.1-45.1,95.6-13.2L152,75.5z"/>
				<path class="st15" d="M74.8,56.8c-0.3,0.2-0.6,0.4-0.9,0.6c-11.5,6.8-13.9,15.9-11.7,20.6c1.5,3.2,6,1.5,27.1-7.9
					c21.1-9.3,47.2-2.4,54.6,0.4c8.2,3.1,8.4-3.3,8.7-4.3l-0.5,9.2c0,0-57.2-22.6-91.8,17.3l-2.9-19.5C57.3,73.3,62.3,64,74.8,56.8z
					"/>
				<path class="st16" d="M149.8,64.2c0,0,1-3-1-3.7c-2-0.7-22.9-9.1-38.8-8.7C110,51.8,139.2,57,149.8,64.2z"/>
			</g>
			<g>
				<g>
					<path class="st12" d="M51.4,121.5c4.6,6.7,12.3,9,17,5.2c4.7-3.8,3.2-16.2-1.5-22.9c-4.6-6.7-10.6-5.1-15.4-1.3
						C46.9,106.3,46.8,114.8,51.4,121.5z"/>
					<path class="st17" d="M51.1,107.3c0,0,2.9-1.3,4.6,1.4c1.7,2.7,5.3,12.8,3.7,13.5c-1.6,0.6-4.2,0-5.1-3c-0.9-3-0.5-5.6,0.8-5.2
						C56.5,114.4,54.4,107.2,51.1,107.3z"/>
				</g>
			</g>
			<g>
				<path class="st18" d="M101.4,100.1c-0.5,3.1,1.2,5.9,3.9,6.4c2.7,0.5,5.3-1.7,5.8-4.7c0.5-3.1-1.2-5.9-3.9-6.4
					C104.5,94.9,101.9,97,101.4,100.1z"/>
				<path class="st1" d="M104.9,98.1c-0.1,0.7,0.3,1.3,1,1.4c0.7,0.1,1.3-0.3,1.4-1c0.1-0.7-0.3-1.3-1-1.4
					C105.6,97,105,97.4,104.9,98.1z"/>
				<path class="st1" d="M102.4,99.9c-0.1,0.4,0.2,0.8,0.6,0.9c0.4,0.1,0.8-0.2,0.9-0.6c0.1-0.4-0.2-0.8-0.6-0.9
					C102.8,99.3,102.5,99.5,102.4,99.9z"/>
			</g>
			<g>
				<path class="st18" d="M130.5,101.1c-0.5,3.1,1.2,5.9,3.9,6.4c2.7,0.5,5.3-1.7,5.8-4.7c0.5-3.1-1.2-5.9-3.9-6.4
					C133.6,95.9,131,98,130.5,101.1z"/>
				<path class="st1" d="M134,99.1c-0.1,0.7,0.3,1.3,1,1.4c0.7,0.1,1.3-0.3,1.4-1c0.1-0.7-0.3-1.3-1-1.4
					C134.7,98,134.1,98.4,134,99.1z"/>
				<path class="st1" d="M131.5,100.9c-0.1,0.4,0.2,0.8,0.6,0.9c0.4,0.1,0.8-0.2,0.9-0.6c0.1-0.4-0.2-0.8-0.6-0.9
					C131.9,100.2,131.6,100.5,131.5,100.9z"/>
			</g>
			<path class="st14" d="M100.3,79.8c0.7-0.9,3-1.5,6.1-2c5.5-0.9,7.6,1.3,5.7,3.5c-1.9,2.2-4.4,2-7.4,3.8c-3.1,1.7-7.6,4.5-7.7,0.7
				C96.9,82,100.3,79.8,100.3,79.8z"/>
			<path class="st14" d="M145.2,82c-0.6-0.9-3-1.6-6.1-2.2c-5.5-1-7.6,1.1-5.8,3.3c1.8,2.2,4.3,2.2,7.3,4c3,1.8,7.4,4.7,7.6,0.9
				C148.5,84.2,145.2,82,145.2,82z"/>
			<g>
				<g>
					<path class="st19" d="M132.7,134.9c-0.9-0.4-12.9,6-22.5-4.9c0,0-1.5,11.8,8.6,13.3C128.8,144.7,132.7,134.9,132.7,134.9z"/>
					<path class="st10" d="M126.5,141.9L126.5,141.9c-2,1.1-4.5,1.8-7.7,1.3c-3.6-0.5-5.8-2.4-7-4.6l0,0
						C121.7,134.6,126.5,141.9,126.5,141.9z"/>
				</g>
				<path class="st20" d="M122.3,146.5c0,0,0.8-1.1-3.6-0.9c-3.3,0.2-5.9-3.3-5.5-2.1C113.7,144.7,113.9,150,122.3,146.5z"/>
			</g>
			<g>
				<g>
					<g>
						<path class="st21" d="M123.2,118.6c0,0-0.9-9.5-14.8-9.7c-13.9-0.1-19.4,9.4-24.1,14.6c-4.7,5.3-16.4,6.8-19.2-2
							c0,0,3.9,20.6,29.1,16.9C119.6,134.8,123.1,132.3,123.2,118.6z"/>
						<path class="st22" d="M84.2,123.6c4.7-5.3,10.2-14.8,24.1-14.6c3.6,0,6.4,0.7,8.4,1.7c0,0-18.5-2.4-26.3,9
							c-7.8,11.4-10.1,14.5-3.1,15.2c7,0.7,23.1,1.5,29.4-1.6c0,0,0,0,0,0c-4.3,2.3-11.3,3.7-22.6,5.3C69,142.2,65,121.6,65,121.6
							C67.8,130.4,79.5,128.9,84.2,123.6z"/>
					</g>
					<g>
						<path class="st21" d="M120.4,121.4c0,0-0.6-8.6,11.8-10.9c12.4-2.2,18.7,5.4,23.7,9.4c5,4,15.7,3.6,16.8-4.7
							c0,0-0.4,19-23.3,19.5C126,135.3,122.5,133.6,120.4,121.4z"/>
						<path class="st22" d="M155.9,119.9c-5-4-11.3-11.6-23.7-9.4c-3.2,0.6-5.6,1.6-7.3,2.8c0,0,16.1-4.9,24.8,4
							c8.7,8.9,11.2,11.4,5.1,13.1c-6.1,1.7-20.4,4.9-26.4,3h0c4.1,1.4,10.6,1.6,21,1.3c23-0.5,23.3-19.5,23.3-19.5
							C171.5,123.5,160.9,123.9,155.9,119.9z"/>
					</g>
				</g>
				<g>
					<path class="st12" d="M110.5,110.6c-0.1,3,4.5,5.5,10.1,5.6c5.6,0.1,10.3-2.3,10.3-5.3c0.1-3-4.5-5.5-10.1-5.6
						C115.2,105.2,110.6,107.6,110.5,110.6z"/>
					<path class="st20" d="M119.8,113.6c5.2,0.1,8.8-0.7,8.9-3.5c0-1.2,0.1-2.5-1.2-3.3c2.2,1,3.6,2.5,3.5,4.2c0,3-4.7,5.4-10.3,5.3
						c-5.6-0.1-10.2-2.6-10.1-5.6c0-0.1,0-0.2,0-0.3C111.2,112.8,115,113.5,119.8,113.6z"/>
				</g>
			</g>
		</g>
	</g>
</g>
</svg>
