<?xml version="1.0" encoding="utf-8"?>
<!-- Generator: Adobe Illustrator 22.1.0, SVG Export Plug-In . SVG Version: 6.00 Build 0)  -->
<svg version="1.1" id="Calque_1" xmlns="http://www.w3.org/2000/svg" xmlns:xlink="http://www.w3.org/1999/xlink" x="0px" y="0px"
	 viewBox="0 0 200 200" style="enable-background:new 0 0 200 200;" xml:space="preserve">
<style type="text/css">
	.st0{clip-path:url(#SVGID_2_);}
	.st1{fill:#FFFFFF;}
	.st2{opacity:0.6;fill:#CFE0F3;}
	.st3{opacity:0.5;fill:#FFFFFF;}
	.st4{fill:#6D6E71;}
	.st5{opacity:0.5;fill:#6D6E71;}
	.st6{fill:#96C0E6;}
	.st7{opacity:0.6;fill:#E1E8F6;}
	.st8{fill:#ED1849;}
	.st9{opacity:0.5;fill:#AB0634;}
	.st10{fill:#D11242;}
	.st11{opacity:0.4;fill:#820024;}
	.st12{fill:#FBD9B5;}
	.st13{opacity:0.3;fill:#FBD9B5;}
	.st14{fill:#663700;}
	.st15{fill:#CFE1F4;}
	.st16{fill:#E9F1FA;}
	.st17{opacity:0.3;fill:#F4C092;}
	.st18{fill:#231F20;}
	.st19{fill:#820024;}
	.st20{opacity:0.5;fill:#FBD9B5;}
	.st21{fill:#572700;}
	.st22{opacity:0.3;fill:#572700;}
</style>
<g>
	<defs>
		<rect id="SVGID_1_" x="0" width="200" height="200"/>
	</defs>
	<clipPath id="SVGID_2_">
		<use xlink:href="#SVGID_1_"  style="overflow:visible;"/>
	</clipPath>
	<g class="st0">
		<g>
			<g>
				<path class="st1" d="M132.6,164.7c0,0-34.4-13.2-48.1-13.2c-13.6,0-50.7,13.2-50.7,13.2s-17.8,92.9-12.6,106
					C31.4,295.8,83.2,292,83.2,292s51.8,3.8,61.9-21.3C150.4,257.6,132.6,164.7,132.6,164.7z"/>
				<path class="st2" d="M83.2,292c0,0,51.8,3.8,61.9-21.3c5.3-13.1-12.5-106-12.5-106s-34.4-13.2-48.1-13.2
					c-13.6,0-34.5,7.7-34.5,7.7s30,23.1,74.8,6.9c0,0,24,63.3,3.6,97.3c-20.4,34-78.4,28.5-103.5,13.3l0,0
					C40.3,295.1,83.2,292,83.2,292z"/>
			</g>
			<path class="st3" d="M35.4,187.9c0,0-12.8,75.9,0.6,88.7c0,0-13.4-4.5-11.5-26.2C26.4,228.7,35.4,187.9,35.4,187.9z"/>
		</g>
		<g>
			<g>
				<path class="st4" d="M92.2,195.4c-0.2,3-2.7,5.3-5.7,5.1c-3-0.2-5.3-2.7-5.1-5.7c0.2-3,2.7-5.3,5.7-5.1
					C90.1,189.9,92.4,192.4,92.2,195.4z"/>
				<path class="st5" d="M89.4,190.3c0.9,1,1.4,2.4,1.3,3.8c-0.2,3-2.7,5.3-5.7,5.1c-0.8,0-1.6-0.3-2.3-0.7c0.9,1.1,2.3,1.8,3.8,1.9
					c3,0.2,5.5-2.1,5.7-5.1C92.3,193.3,91.2,191.3,89.4,190.3z"/>
			</g>
			<g>
				<path class="st4" d="M91.1,217.7c-0.2,3-2.7,5.3-5.7,5.1c-3-0.2-5.3-2.7-5.1-5.7c0.2-3,2.7-5.3,5.7-5.1
					C89,212.2,91.2,214.7,91.1,217.7z"/>
				<path class="st5" d="M88.3,212.7c0.9,1,1.4,2.4,1.3,3.8c-0.2,3-2.7,5.3-5.7,5.1c-0.8,0-1.6-0.3-2.3-0.7c0.9,1.1,2.3,1.8,3.8,1.9
					c3,0.2,5.5-2.1,5.7-5.1C91.2,215.6,90,213.6,88.3,212.7z"/>
			</g>
			<g>
				<path class="st4" d="M90.3,241.6c-0.2,3-2.7,5.3-5.7,5.1c-3-0.2-5.3-2.7-5.1-5.7c0.2-3,2.7-5.3,5.7-5.1
					C88.2,236.1,90.5,238.7,90.3,241.6z"/>
				<path class="st5" d="M87.5,236.6c0.9,1,1.4,2.4,1.3,3.8c-0.2,3-2.7,5.3-5.7,5.1c-0.8,0-1.6-0.3-2.3-0.7c0.9,1.1,2.3,1.8,3.8,1.9
					c3,0.2,5.5-2.1,5.7-5.1C90.5,239.5,89.3,237.6,87.5,236.6z"/>
			</g>
		</g>
		<g>
			<g>
				<path class="st1" d="M87.9,158.2c0,0,20.9-1.3,28.6-5.9l2.4,7.3c0,0-10.1,9.1-31,11.5V158.2z"/>
				<path class="st1" d="M87.9,158.2c0,0-20.1-1.7-28.6-5.9l-2.4,7.3c0,0,10.1,9.1,31,11.5V158.2z"/>
			</g>
			<path class="st6" d="M93.6,163.6c0,0.8-0.7,1.5-1.5,1.5s-1.5-0.7-1.5-1.5c0-0.8,0.7-1.5,1.5-1.5S93.6,162.8,93.6,163.6z"/>
			<path class="st6" d="M85.4,163.1c0,0.8-0.7,1.5-1.5,1.5c-0.8,0-1.5-0.7-1.5-1.5c0-0.8,0.7-1.5,1.5-1.5
				C84.7,161.6,85.4,162.3,85.4,163.1z"/>
			<path class="st7" d="M87.9,158.2c0,0-0.8-0.1-2-0.2c0,0,2,3.6-2.3,7.4c-4.4,3.8-15.1-1.9-18.6-3.2c-3.5-1.3-5.8-3.8-5.2-5.5
				c0.6-1.6,2.5-2.9,2.8-3.1c-1.2-0.4-2.3-0.8-3.2-1.3l-2.4,7.3c0,0,10.1,9.1,31,11.5V158.2z"/>
		</g>
		<g>
			<path class="st8" d="M59.3,152.3c0,0,31.6,11.1,57.2,0l0.9,2.7c0,0-25.8,19.7-58.9-0.4L59.3,152.3z"/>
			<g>
				<g>
					<g>
						<path class="st8" d="M87.4,166.7c0,0,8.7,17.4,10.9,28.5c0,0,9-3.3,13.7-2.9c0,0-6.1-22.8-20.4-28.1L87.4,166.7z"/>
						<path class="st9" d="M98.3,195.3c0,0,9-3.3,13.7-2.9c0,0-6.1-22.8-20.4-28.1l-4.2,2.5c0,0,2.3,4.5,4.8,10.5h0
							c0,0-1.9-6.8-0.6-7.1c1.3-0.2,5.3,8,5.3,8s-2.3-7.5-3.4-8.9c0,0,0.8-1.4,3-0.3c2.3,1.1,10.1,15.6,11.2,19.1
							C108.8,191.6,99.5,194.2,98.3,195.3z"/>
					</g>
					<g>
						<path class="st8" d="M86.9,166.7c0,0-8.7,17.4-10.9,28.5c0,0-9-3.3-13.7-2.9c0,0,6.1-22.8,20.4-28.1L86.9,166.7z"/>
						<path class="st9" d="M76,195.3c0,0-9-3.3-13.7-2.9c0,0,6.1-22.8,20.4-28.1l4.2,2.5c0,0-2.3,4.5-4.8,10.5h0
							c0,0,1.9-6.8,0.6-7.1c-1.3-0.2-5.3,8-5.3,8s2.3-7.5,3.4-8.9c0,0-0.8-1.4-3-0.3c-2.3,1.1-10.1,15.6-11.2,19.1
							C65.5,191.6,74.8,194.2,76,195.3z"/>
					</g>
				</g>
				<g>
					<path class="st10" d="M95.2,163.3c0,3.6-3.8,6.6-8.4,6.6c-4.7,0-8.4-2.9-8.4-6.6c0-3.6,3.8-6.6,8.4-6.6
						C91.4,156.7,95.2,159.6,95.2,163.3z"/>
					<path class="st11" d="M91,157.6c0.7,0.9,1.1,1.9,1.1,3c0,3.1-3.2,5.6-7.2,5.6c-2.9,0-5.4-1.4-6.6-3.3c0,0.1,0,0.2,0,0.3
						c0,3.6,3.8,6.6,8.4,6.6c4.7,0,8.4-2.9,8.4-6.6C95.2,160.9,93.5,158.7,91,157.6z"/>
				</g>
			</g>
		</g>
		<g>
			<g>
				<g>
					<path class="st12" d="M136.4,117.7c-5,26.6-18.4,46.5-55.9,41.6C43,154.4,31.9,128.8,36.2,99c4.4-30.6,32.8-49.9,61.6-42.8
						C124.9,62.8,141.5,90.5,136.4,117.7z"/>
					<path class="st13" d="M54.8,150.3c6.7,4.3,15.1,7.4,25.7,8.8c37.5,4.9,50.9-15,55.9-41.6c3.4-18.4-8.2-40.6-21-52.8
						c-3.8,1.8-14.2,38,8.4,50.8c0,0,12.2,5.6-2.1,26.4C99.7,169,69.2,156.8,54.8,150.3z"/>
				</g>
				<path class="st14" d="M106.4,64.6c-9.6-4.1-40.2-5.7-40.2-5.7s-0.5,0.1-1.4,0.2c-8.2,3.9-15,10-20.1,17.8
					c5.5-6.1,24-17.7,43.4-11.3c20.2,6.7,26.2,14.4,25.1,22.5c-1.1,8.2,1.7,23.9,10.6,27.4c0,0,8.1-5.3,13.1-1.4
					c1.2-9.4-0.2-18.8-3.7-27.2C125.8,78.5,113.1,67.5,106.4,64.6z"/>
				<g>
					<path class="st1" d="M158.7,33.9c1.3-16-9.6-28.5-24.3-27.7c-4,0.2-7.9,1.5-11.4,3.5c-3.2-12.3-13.3-20.6-25.8-19.8
						c-11,0.7-20.6,8.5-25.5,19c-4-3.1-9-4.8-14.4-4.4C43.7,5.4,32.6,18.7,32.6,34C32.5,49,43,60.5,56.2,60c2.9-0.1,5.6-0.8,8.2-1.9
						c43.3-16.4,56.9,23.2,61.7,18.6c3.6,9.7,12.4,16.2,23.2,16c15-0.4,28.6-13.7,30.2-30C181,47.7,171.9,35.6,158.7,33.9z"/>
					<path class="st2" d="M158.7,33.9c1.3-16-9.6-28.5-24.3-27.7c-3.9,0.2-7.6,1.4-11,3.3c-1.5,2.4-2.7,4.9-3.4,7.5
						c0,0,35.9-5.6,34.9,27.4c0,0,21.1,0.3,13.2,25.5c-4.9,15.5-22.6,11.3-22.6,11.3s-18.2-57.8-95-30.2c0,0-17.5-5.6-5.1-33.8
						c0.3-1.5-11.2,2.2-12.8,16.1c0,0.2,0,0.4,0,0.6C32.5,49,43,60.5,56.2,60c2.9-0.1,5.6-0.8,8.2-1.9
						c43.3-16.4,56.9,23.2,61.7,18.6c3.6,9.7,12.4,16.2,23.2,16c15-0.4,28.6-13.7,30.2-30C181,47.7,171.9,35.6,158.7,33.9z"/>
					<path class="st15" d="M158.7,33.9c1.3-16-9.6-28.5-24.3-27.7c-4,0.2-7.9,1.5-11.4,3.5c-3.2-12.3-13.3-20.6-25.8-19.8
						c-11,0.7-20.6,8.5-25.5,19c-4-3.1-9-4.8-14.4-4.4C43.7,5.4,32.6,18.7,32.6,34C32.5,46.7,40,56.9,50.2,59.4
						C43.1,55,34.3,45.7,37.4,33.6c6.1-21.4,17.6-27.3,35.9-20.7c0,0,7.6-21.9,28.4-17.5c21,4.4,18.3,21.6,18.3,21.6
						s16.5-9.1,27,0.1c10.4,9.2,9.5,20.3,8.2,27.3c0,0,2.6-4.1,3.1-7.3c0,0,28.4,7.4,11.3,36.3c-10.9,18.4-30,11.1-30,11.1l-1.3,5.7
						c3.3,1.6,7.1,2.5,11.2,2.4c15-0.4,28.6-13.7,30.2-30C181,47.7,171.9,35.6,158.7,33.9z"/>
					<path class="st1" d="M49.6,68.7c0,0,60.2-12.6,87.5,32.6l6.2-18.7c0,0-16.1-48.5-91.9-29.2L49.6,68.7z"/>
					<path class="st15" d="M128.9,63.4c0.3,0.2,0.5,0.5,0.8,0.7c10.2,8.7,11,18.1,8,22.3c-2,2.9-6.1,0.4-25.4-12.3
						c-19.3-12.8-46.1-10.4-53.9-8.8c-8.6,1.7-7.7-4.7-7.8-5.7l-1.1,9.1c0,0,60.2-12.6,87.5,32.6l6.2-18.7
						C143.3,82.6,140,72.6,128.9,63.4z"/>
					<path class="st16" d="M53.7,58c0,0-0.4-3.1,1.6-3.5c2-0.4,24.1-5.1,39.7-2C95,52.5,65.3,52.6,53.7,58z"/>
				</g>
				<g>
					<g>
						<path class="st12" d="M140.9,131.1c-5.7,5.8-13.6,6.8-17.6,2.2c-4-4.6-0.4-16.5,5.3-22.3c5.7-5.8,11.3-3.2,15.4,1.3
							C148,116.9,146.6,125.3,140.9,131.1z"/>
						<path class="st17" d="M143.6,117.2c0,0-2.6-1.8-4.7,0.6c-2.1,2.4-7.4,11.8-5.9,12.7c1.4,0.9,4.2,0.7,5.6-2.1
							c1.4-2.8,1.4-5.4,0.1-5.2C137.2,123.3,140.5,116.5,143.6,117.2z"/>
					</g>
				</g>
				<g>
					<path class="st18" d="M66.5,97.6c0,3.1-2.2,5.6-5,5.6c-2.7,0-5-2.5-5-5.6c0-3.1,2.2-5.6,5-5.6C64.3,92,66.5,94.5,66.5,97.6z"/>
					<path class="st1" d="M63.4,95c0,0.7-0.5,1.2-1.2,1.2c-0.7,0-1.2-0.5-1.2-1.2c0-0.7,0.5-1.2,1.2-1.2
						C62.8,93.8,63.4,94.3,63.4,95z"/>
					<path class="st1" d="M65.5,97.3c0,0.4-0.3,0.7-0.7,0.7c-0.4,0-0.7-0.3-0.7-0.7c0-0.4,0.3-0.7,0.7-0.7
						C65.2,96.5,65.5,96.9,65.5,97.3z"/>
				</g>
				<path class="st14" d="M100.8,84.9c-0.5-1-2.7-2-5.7-3c-5.3-1.8-7.7,0-6.2,2.5c1.5,2.5,4,2.7,6.7,5c2.7,2.2,6.7,5.7,7.4,2
					C103.8,87.6,100.8,84.9,100.8,84.9z"/>
				<path class="st14" d="M55.2,78.8c0.8-0.8,3.2-1.1,6.3-1.1c5.6-0.1,7.3,2.3,5.1,4.2c-2.2,1.9-4.6,1.4-7.9,2.7
					c-3.3,1.3-8.1,3.4-7.7-0.4C51.5,80.5,55.2,78.8,55.2,78.8z"/>
				<g>
					<g>
						<path class="st19" d="M58.5,130.5c0.9-0.2,11.7,8.1,23-1.1c0,0-0.5,11.9-10.7,11.6C60.7,140.9,58.5,130.5,58.5,130.5z"/>
						<path class="st10" d="M63.5,138.5L63.5,138.5c1.8,1.4,4.2,2.5,7.3,2.6c3.7,0.1,6.1-1.4,7.7-3.3l0,0
							C69.5,132.1,63.5,138.5,63.5,138.5z"/>
					</g>
					<path class="st20" d="M66.9,143.7c0,0-0.6-1.3,3.7-0.3c3.3,0.7,6.4-2.3,5.7-1.1C75.7,143.4,74.5,148.7,66.9,143.7z"/>
				</g>
				<g>
					<g>
						<g>
							<path class="st21" d="M70.7,116.1c0,0,2.5-9.3,16.3-7c13.8,2.3,17.5,12.5,21.3,18.5c3.8,6,15,9.5,19.3,1.3
								c0,0-7.4,19.7-31.5,11.8C71.5,132.6,68.4,129.6,70.7,116.1z"/>
							<path class="st22" d="M108.2,127.6c-3.8-6-7.5-16.3-21.3-18.5c-3.6-0.6-6.4-0.4-8.6,0.2c0,0,18.6,0.8,24.4,13.3
								c5.8,12.5,7.5,16,0.5,15.5c-7-0.5-23-2.4-28.7-6.6c0,0,0,0,0,0c3.8,3,10.5,5.5,21.4,9.1c24.2,7.9,31.5-11.8,31.5-11.8
								C123.2,137.1,112,133.6,108.2,127.6z"/>
						</g>
						<g>
							<path class="st21" d="M73,119.3c0,0,2.1-8.4-9.8-12.7c-11.9-4.3-19.3,2.2-25,5.2c-5.6,3.1-16,0.9-15.8-7.5
								c0,0-2.9,18.8,19.7,23.2C65.1,132.1,68.8,131,73,119.3z"/>
							<path class="st22" d="M38.3,111.9c5.6-3.1,13.1-9.5,25-5.2c3.1,1.1,5.2,2.5,6.7,4c0,0-15-7.6-25.1-0.2
								c-10.1,7.3-13,9.3-7.2,12c5.8,2.7,19.2,8.2,25.5,7.4c0,0,0,0,0,0c-4.3,0.6-10.7-0.2-20.9-2.3c-22.6-4.4-19.7-23.2-19.7-23.2
								C22.2,112.8,32.7,115,38.3,111.9z"/>
						</g>
					</g>
					<g>
						<path class="st12" d="M84.5,110.4c-0.5,3-5.4,4.7-10.9,3.8c-5.6-0.9-9.7-4-9.3-7c0.5-3,5.4-4.7,10.9-3.8
							C80.8,104.3,85,107.4,84.5,110.4z"/>
						<path class="st20" d="M74.8,111.8c-5.2-0.8-8.6-2.2-8.1-5c0.2-1.2,0.4-2.4,1.8-3.1c-2.3,0.7-3.9,1.9-4.2,3.6
							c-0.5,3,3.7,6.1,9.3,7c5.6,0.9,10.5-0.8,10.9-3.8c0-0.1,0-0.2,0-0.3C83.5,112.4,79.6,112.5,74.8,111.8z"/>
					</g>
				</g>
			</g>
			<path class="st18" d="M95.8,97.3c0,0-5.9-0.7-7.5,6.4c0,0,6.4-0.5,10.3,1.8c0,0,1.7-2.7-8-3.7C90.5,101.9,93.7,97.6,95.8,97.3z"
				/>
		</g>
	</g>
</g>
</svg>
