<?xml version="1.0" encoding="utf-8"?>
<!-- Generator: Adobe Illustrator 22.1.0, SVG Export Plug-In . SVG Version: 6.00 Build 0)  -->
<svg version="1.1" id="Calque_1" xmlns="http://www.w3.org/2000/svg" xmlns:xlink="http://www.w3.org/1999/xlink" x="0px" y="0px"
	 viewBox="0 0 200 200" style="enable-background:new 0 0 200 200;" xml:space="preserve">
<style type="text/css">
	.st0{clip-path:url(#SVGID_2_);}
	.st1{fill:#FFFFFF;}
	.st2{opacity:0.6;fill:#CFE0F3;}
	.st3{opacity:0.5;fill:#FFFFFF;}
	.st4{fill:#6D6E71;}
	.st5{opacity:0.5;fill:#6D6E71;}
	.st6{fill:#96C0E6;}
	.st7{opacity:0.6;fill:#E1E8F6;}
	.st8{fill:#ED1849;}
	.st9{opacity:0.5;fill:#AB0634;}
	.st10{fill:#D11242;}
	.st11{opacity:0.4;fill:#820024;}
	.st12{fill:#FBD9B5;}
	.st13{opacity:0.3;fill:#FBD9B5;}
	.st14{fill:#663700;}
	.st15{fill:#CFE1F4;}
	.st16{fill:#E9F1FA;}
	.st17{opacity:0.3;fill:#F4C092;}
	.st18{fill:#820024;}
	.st19{opacity:0.5;fill:#FBD9B5;}
	.st20{fill:#572700;}
	.st21{opacity:0.3;fill:#572700;}
	.st22{fill:#231F20;}
</style>
<g>
	<defs>
		<rect id="SVGID_1_" x="0" width="200" height="200"/>
	</defs>
	<clipPath id="SVGID_2_">
		<use xlink:href="#SVGID_1_"  style="overflow:visible;"/>
	</clipPath>
	<g class="st0">
		<g>
			<g>
				<path class="st1" d="M67.4,164.7c0,0,34.4-13.2,48.1-13.2c13.6,0,50.7,13.2,50.7,13.2s17.8,92.9,12.6,106
					c-10.1,25.1-61.9,21.3-61.9,21.3s-51.8,3.8-61.9-21.3C49.6,257.6,67.4,164.7,67.4,164.7z"/>
				<path class="st2" d="M116.8,292c0,0-51.8,3.8-61.9-21.3c-5.3-13.1,12.5-106,12.5-106s34.4-13.2,48.1-13.2
					c13.6,0,34.5,7.7,34.5,7.7s-30,23.1-74.8,6.9c0,0-24,63.3-3.6,97.3c20.4,34,78.4,28.5,103.5,13.3l0,0
					C159.7,295.1,116.8,292,116.8,292z"/>
			</g>
			<path class="st3" d="M164.6,187.9c0,0,12.8,75.9-0.6,88.7c0,0,13.4-4.5,11.5-26.2C173.6,228.7,164.6,187.9,164.6,187.9z"/>
		</g>
		<g>
			<g>
				<path class="st4" d="M107.8,195.4c0.2,3,2.7,5.3,5.7,5.1c3-0.2,5.3-2.7,5.1-5.7c-0.2-3-2.7-5.3-5.7-5.1
					C109.9,189.9,107.6,192.4,107.8,195.4z"/>
				<path class="st5" d="M110.6,190.3c-0.9,1-1.4,2.4-1.3,3.8c0.2,3,2.7,5.3,5.7,5.1c0.8,0,1.6-0.3,2.3-0.7
					c-0.9,1.1-2.3,1.8-3.8,1.9c-3,0.2-5.5-2.1-5.7-5.1C107.7,193.3,108.8,191.3,110.6,190.3z"/>
			</g>
			<g>
				<path class="st4" d="M108.9,217.7c0.2,3,2.7,5.3,5.7,5.1c3-0.2,5.3-2.7,5.1-5.7c-0.2-3-2.7-5.3-5.7-5.1
					C111,212.2,108.8,214.7,108.9,217.7z"/>
				<path class="st5" d="M111.7,212.7c-0.9,1-1.4,2.4-1.3,3.8c0.2,3,2.7,5.3,5.7,5.1c0.8,0,1.6-0.3,2.3-0.7
					c-0.9,1.1-2.3,1.8-3.8,1.9c-3,0.2-5.5-2.1-5.7-5.1C108.8,215.6,110,213.6,111.7,212.7z"/>
			</g>
			<g>
				<path class="st4" d="M109.7,241.6c0.2,3,2.7,5.3,5.7,5.1c3-0.2,5.3-2.7,5.1-5.7c-0.2-3-2.7-5.3-5.7-5.1
					C111.8,236.1,109.5,238.7,109.7,241.6z"/>
				<path class="st5" d="M112.5,236.6c-0.9,1-1.4,2.4-1.3,3.8c0.2,3,2.7,5.3,5.7,5.1c0.8-0.1,1.6-0.3,2.3-0.7
					c-0.9,1.1-2.3,1.8-3.8,1.9c-3,0.2-5.5-2.1-5.7-5.1C109.5,239.5,110.7,237.6,112.5,236.6z"/>
			</g>
		</g>
		<g>
			<g>
				<path class="st1" d="M112.1,158.2c0,0-20.9-1.3-28.6-5.9l-2.4,7.3c0,0,10.1,9.1,31,11.5V158.2z"/>
				<path class="st1" d="M112.1,158.2c0,0,20.1-1.7,28.6-5.9l2.4,7.3c0,0-10.1,9.1-31,11.5V158.2z"/>
			</g>
			<path class="st6" d="M106.4,163.6c0,0.8,0.7,1.5,1.5,1.5c0.8,0,1.5-0.7,1.5-1.5c0-0.8-0.7-1.5-1.5-1.5
				C107.1,162.1,106.4,162.8,106.4,163.6z"/>
			<path class="st6" d="M114.6,163.1c0,0.8,0.7,1.5,1.5,1.5c0.8,0,1.5-0.7,1.5-1.5c0-0.8-0.7-1.5-1.5-1.5
				C115.3,161.6,114.6,162.3,114.6,163.1z"/>
			<path class="st7" d="M112.1,158.2c0,0,0.8-0.1,2-0.2c0,0-2,3.6,2.3,7.4c4.4,3.8,15.1-1.9,18.6-3.2c3.5-1.3,5.8-3.8,5.2-5.5
				c-0.6-1.6-2.5-2.9-2.8-3.1c1.2-0.4,2.3-0.8,3.2-1.3l2.4,7.3c0,0-10.1,9.1-31,11.5V158.2z"/>
		</g>
		<g>
			<path class="st8" d="M140.7,152.3c0,0-31.6,11.1-57.2,0l-0.9,2.7c0,0,25.8,19.7,58.9-0.4L140.7,152.3z"/>
			<g>
				<g>
					<g>
						<path class="st8" d="M112.6,166.7c0,0-8.7,17.4-10.9,28.5c0,0-9-3.3-13.7-2.9c0,0,6.1-22.8,20.4-28.1L112.6,166.7z"/>
						<path class="st9" d="M101.7,195.3c0,0-9-3.3-13.7-2.9c0,0,6.1-22.8,20.4-28.1l4.2,2.5c0,0-2.3,4.5-4.8,10.5h0
							c0,0,1.9-6.8,0.6-7.1c-1.3-0.2-5.3,8-5.3,8s2.3-7.5,3.4-8.9c0,0-0.8-1.4-3-0.3c-2.3,1.1-10.1,15.6-11.2,19.1
							C91.2,191.6,100.5,194.2,101.7,195.3z"/>
					</g>
					<g>
						<path class="st8" d="M113.1,166.7c0,0,8.7,17.4,10.9,28.5c0,0,9-3.3,13.7-2.9c0,0-6.1-22.8-20.4-28.1L113.1,166.7z"/>
						<path class="st9" d="M124,195.3c0,0,9-3.3,13.7-2.9c0,0-6.1-22.8-20.4-28.1l-4.2,2.5c0,0,2.3,4.5,4.8,10.5l0,0
							c0,0-1.9-6.8-0.6-7.1c1.3-0.2,5.3,8,5.3,8s-2.3-7.5-3.4-8.9c0,0,0.8-1.4,3-0.3c2.3,1.1,10.1,15.6,11.2,19.1
							C134.5,191.6,125.2,194.2,124,195.3z"/>
					</g>
				</g>
				<g>
					<path class="st10" d="M104.8,163.3c0,3.6,3.8,6.6,8.4,6.6c4.7,0,8.4-2.9,8.4-6.6c0-3.6-3.8-6.6-8.4-6.6
						C108.6,156.7,104.8,159.6,104.8,163.3z"/>
					<path class="st11" d="M109,157.6c-0.7,0.9-1.1,1.9-1.1,3c0,3.1,3.2,5.6,7.2,5.6c2.9,0,5.4-1.3,6.6-3.3c0,0.1,0,0.2,0,0.3
						c0,3.6-3.8,6.6-8.4,6.6c-4.7,0-8.4-2.9-8.4-6.6C104.8,160.9,106.5,158.7,109,157.6z"/>
				</g>
			</g>
		</g>
		<g>
			<g>
				<g>
					<path class="st12" d="M63.6,117.7c5,26.6,18.4,46.5,55.9,41.6c37.6-4.9,48.7-30.5,44.4-60.3c-4.4-30.6-32.8-49.9-61.6-42.8
						C75.1,62.8,58.5,90.5,63.6,117.7z"/>
					<path class="st13" d="M145.2,150.3c-6.7,4.3-15.1,7.4-25.7,8.8c-37.5,4.9-50.9-15-55.9-41.6c-3.4-18.4,8.2-40.6,21-52.8
						c3.8,1.8,14.2,38-8.4,50.8c0,0-12.2,5.6,2.1,26.4C100.3,169,130.8,156.8,145.2,150.3z"/>
				</g>
				<path class="st14" d="M93.6,64.6c9.6-4.1,40.2-5.7,40.2-5.7s0.5,0.1,1.4,0.2c8.2,3.9,15,10,20.1,17.8
					c-5.5-6.1-24-17.7-43.4-11.3C91.7,72.3,85.8,80,86.9,88.1c1.1,8.2-1.7,23.9-10.6,27.4c0,0-8.1-5.3-13.1-1.4
					c-1.2-9.4,0.2-18.8,3.7-27.2C74.2,78.5,86.9,67.5,93.6,64.6z"/>
				<g>
					<path class="st1" d="M41.3,33.9C40,17.8,50.9,5.3,65.6,6.2c4,0.2,7.9,1.5,11.4,3.5c3.2-12.3,13.3-20.6,25.8-19.8
						c11,0.7,20.6,8.5,25.5,19c4-3.1,9-4.8,14.4-4.4c13.7,0.9,24.7,14.2,24.8,29.5c0.1,15-10.4,26.6-23.6,26
						c-2.9-0.1-5.6-0.8-8.2-1.9C92.3,41.7,78.6,81.3,73.9,76.7c-3.6,9.7-12.4,16.2-23.2,16c-15-0.4-28.6-13.7-30.2-30
						C19,47.7,28.1,35.6,41.3,33.9z"/>
					<path class="st2" d="M41.3,33.9C40,17.8,50.9,5.3,65.6,6.2c3.9,0.2,7.6,1.4,11,3.3c1.5,2.4,2.7,4.9,3.4,7.5
						c0,0-35.9-5.6-34.9,27.4c0,0-21.1,0.3-13.2,25.5c4.9,15.5,22.6,11.3,22.6,11.3s18.2-57.8,95-30.2c0,0,17.5-5.6,5.1-33.8
						c-0.3-1.5,11.2,2.2,12.8,16.1c0,0.2,0,0.4,0,0.6c0.1,15-10.4,26.6-23.6,26c-2.9-0.1-5.6-0.8-8.2-1.9
						C92.3,41.7,78.6,81.3,73.9,76.7c-3.6,9.7-12.4,16.2-23.2,16c-15-0.4-28.6-13.7-30.2-30C19,47.7,28.1,35.6,41.3,33.9z"/>
					<path class="st15" d="M41.3,33.9C40,17.8,50.9,5.3,65.6,6.2c4,0.2,7.9,1.5,11.4,3.5c3.2-12.3,13.3-20.6,25.8-19.8
						c11,0.7,20.6,8.5,25.5,19c4-3.1,9-4.8,14.4-4.4c13.7,0.9,24.7,14.2,24.8,29.5c0.1,12.7-7.4,22.9-17.7,25.4
						c7.2-4.4,15.9-13.7,12.9-25.8c-6.1-21.4-17.6-27.3-35.9-20.7c0,0-7.6-21.9-28.4-17.5C77.4-0.2,80.1,17,80.1,17
						s-16.5-9.1-27,0.1c-10.4,9.2-9.5,20.3-8.2,27.3c0,0-2.6-4.2-3.1-7.3c0,0-28.4,7.4-11.3,36.3c10.9,18.4,30,11.1,30,11.1l1.3,5.7
						c-3.3,1.6-7.1,2.5-11.2,2.4c-15-0.4-28.6-13.7-30.2-30C19,47.7,28.1,35.6,41.3,33.9z"/>
					<path class="st1" d="M150.4,68.7c0,0-60.2-12.6-87.5,32.6l-6.2-18.7c0,0,16.1-48.5,91.9-29.2L150.4,68.7z"/>
					<path class="st15" d="M71.1,63.4c-0.3,0.2-0.5,0.5-0.8,0.7c-10.2,8.7-11,18.1-8,22.3c2,2.9,6.1,0.4,25.4-12.3
						c19.3-12.8,46.1-10.4,53.9-8.8c8.6,1.7,7.7-4.7,7.8-5.7l1.1,9.1c0,0-60.2-12.6-87.5,32.6l-6.2-18.7
						C56.7,82.6,60,72.6,71.1,63.4z"/>
					<path class="st16" d="M146.3,58c0,0,0.5-3.1-1.6-3.5c-2.1-0.4-24.1-5.1-39.7-2C105,52.5,134.7,52.6,146.3,58z"/>
				</g>
				<g>
					<g>
						<path class="st12" d="M59.1,131.1c5.7,5.8,13.6,6.8,17.6,2.2c4-4.6,0.4-16.5-5.3-22.3c-5.7-5.8-11.3-3.2-15.4,1.3
							C52,116.9,53.4,125.3,59.1,131.1z"/>
						<path class="st17" d="M56.4,117.2c0,0,2.6-1.8,4.7,0.6c2.1,2.4,7.4,11.8,5.9,12.7c-1.4,0.9-4.2,0.7-5.6-2.1
							c-1.4-2.8-1.4-5.4-0.1-5.3C62.8,123.3,59.5,116.5,56.4,117.2z"/>
					</g>
				</g>
				<path class="st14" d="M99.2,84.9c0.5-1,2.7-2,5.7-3c5.3-1.8,7.7,0,6.2,2.5c-1.5,2.5-4,2.7-6.7,5c-2.7,2.2-6.7,5.7-7.4,2
					C96.2,87.6,99.2,84.9,99.2,84.9z"/>
				<path class="st14" d="M144.8,78.8c-0.8-0.8-3.2-1.1-6.3-1.1c-5.6-0.1-7.3,2.3-5.1,4.2c2.2,1.9,4.6,1.4,7.9,2.7
					c3.3,1.3,8.1,3.4,7.7-0.4C148.5,80.5,144.8,78.8,144.8,78.8z"/>
				<g>
					<g>
						<path class="st18" d="M141.5,130.5c-0.9-0.2-11.7,8.1-23-1.1c0,0,0.5,11.9,10.7,11.6C139.3,140.9,141.5,130.5,141.5,130.5z"/>
						<path class="st10" d="M136.5,138.5L136.5,138.5c-1.8,1.4-4.2,2.5-7.3,2.6c-3.7,0.1-6.1-1.4-7.7-3.3l0,0
							C130.5,132.1,136.5,138.5,136.5,138.5z"/>
					</g>
					<path class="st19" d="M133.1,143.7c0,0,0.6-1.3-3.7-0.3c-3.3,0.7-6.4-2.3-5.7-1.1C124.3,143.4,125.5,148.7,133.1,143.7z"/>
				</g>
				<g>
					<g>
						<g>
							<path class="st20" d="M129.3,116.1c0,0-2.5-9.3-16.3-7c-13.8,2.3-17.5,12.5-21.3,18.5c-3.8,6-15,9.5-19.3,1.3
								c0,0,7.4,19.7,31.5,11.8C128.5,132.6,131.6,129.6,129.3,116.1z"/>
							<path class="st21" d="M91.8,127.6c3.8-6,7.5-16.3,21.3-18.5c3.6-0.6,6.4-0.4,8.6,0.2c0,0-18.6,0.8-24.4,13.3
								c-5.8,12.5-7.5,16-0.5,15.5c7-0.5,23-2.4,28.7-6.6h0c-3.8,3-10.5,5.5-21.4,9.1c-24.2,7.9-31.5-11.8-31.5-11.8
								C76.8,137.1,88,133.6,91.8,127.6z"/>
						</g>
						<g>
							<path class="st20" d="M127,119.3c0,0-2.1-8.4,9.8-12.7c11.9-4.3,19.3,2.2,25,5.2c5.6,3.1,16,0.9,15.8-7.5
								c0,0,2.9,18.8-19.7,23.2C134.9,132.1,131.2,131,127,119.3z"/>
							<path class="st21" d="M161.7,111.9c-5.6-3.1-13.1-9.5-25-5.2c-3.1,1.1-5.2,2.5-6.7,4c0,0,15-7.6,25.1-0.2
								c10.1,7.3,13,9.3,7.2,12c-5.8,2.7-19.2,8.2-25.5,7.4h0c4.3,0.6,10.7-0.3,20.9-2.3c22.6-4.4,19.7-23.2,19.7-23.2
								C177.8,112.8,167.3,115,161.7,111.9z"/>
						</g>
					</g>
					<g>
						<path class="st12" d="M115.5,110.4c0.5,3,5.4,4.7,10.9,3.8c5.6-0.9,9.7-4,9.3-6.9c-0.5-3-5.4-4.7-10.9-3.8
							C119.2,104.3,115,107.4,115.5,110.4z"/>
						<path class="st19" d="M125.2,111.8c5.2-0.8,8.6-2.2,8.1-5c-0.2-1.2-0.4-2.4-1.8-3.1c2.3,0.7,3.9,1.9,4.2,3.6
							c0.5,3-3.7,6.1-9.3,6.9c-5.6,0.9-10.5-0.8-10.9-3.8c0-0.1,0-0.2,0-0.3C116.5,112.4,120.4,112.5,125.2,111.8z"/>
					</g>
				</g>
			</g>
			<g>
				<path class="st22" d="M132.9,98.6c0,0,0.9-6.9,7-6.4c6.2,0.6,6.9,5.1,6,5.3c-0.9,0.2-1.5-2.4-4.9-3c-2.8-0.5-4.1-0.2-5.3,1.3
					C134.7,97.3,133.9,99.5,132.9,98.6z"/>
				<path class="st22" d="M117,101.4c0,0-3.3-6.1-8.9-3.4c-5.6,2.8-4.6,7.3-3.7,7.1c0.9-0.2,0.5-2.8,3.4-4.6
					c2.4-1.5,3.8-1.7,5.4-0.6C114.9,100.9,116.4,102.7,117,101.4z"/>
			</g>
		</g>
	</g>
</g>
</svg>
